<?xml version="1.0" encoding="UTF-8" standalone="no"?>
<!DOCTYPE svg PUBLIC "-//W3C//DTD SVG 1.1//EN"
 "http://www.w3.org/Graphics/SVG/1.1/DTD/svg11.dtd">
<!-- Generated by graphviz version 2.40.1 (20161225.0304)
 -->
<!-- Title: dependencies Pages: 1 -->
<svg width="8497pt" height="355pt"
 viewBox="0.00 0.00 8497.00 355.00" xmlns="http://www.w3.org/2000/svg" xmlns:xlink="http://www.w3.org/1999/xlink">
<g id="graph0" class="graph" transform="scale(1 1) rotate(0) translate(4 351)">
<title>dependencies</title>
<polygon fill="#ffffff" stroke="transparent" points="-4,4 -4,-351 8493,-351 8493,4 -4,4"/>
<text text-anchor="start" x="4223.5091" y="-42.4" font-family="sans-serif" font-weight="bold" font-size="14.00" fill="#000000">Legend</text>
<polygon fill="#ffffb3" stroke="transparent" points="4010.5,-10 4010.5,-30 4030.5,-30 4030.5,-10 4010.5,-10"/>
<text text-anchor="start" x="4034.129" y="-15.4" font-family="sans-serif" font-size="14.00" fill="#000000"> &#160;Declarations</text>
<polygon fill="#8dd3c7" stroke="transparent" points="4123.5,-10 4123.5,-30 4143.5,-30 4143.5,-10 4123.5,-10"/>
<text text-anchor="start" x="4147.2251" y="-15.4" font-family="sans-serif" font-size="14.00" fill="#000000"> &#160;Module</text>
<polygon fill="#80b1d3" stroke="transparent" points="4209.5,-10 4209.5,-30 4229.5,-30 4229.5,-10 4209.5,-10"/>
<text text-anchor="start" x="4233.2812" y="-15.4" font-family="sans-serif" font-size="14.00" fill="#000000"> &#160;Bootstrap</text>
<polygon fill="#fdb462" stroke="transparent" points="4306.5,-10 4306.5,-30 4326.5,-30 4326.5,-10 4306.5,-10"/>
<text text-anchor="start" x="4330.1732" y="-15.4" font-family="sans-serif" font-size="14.00" fill="#000000"> &#160;Providers</text>
<polygon fill="#fb8072" stroke="transparent" points="4402.5,-10 4402.5,-30 4422.5,-30 4422.5,-10 4402.5,-10"/>
<text text-anchor="start" x="4426.2258" y="-15.4" font-family="sans-serif" font-size="14.00" fill="#000000"> &#160;Exports</text>
<g id="clust1" class="cluster">
<title>cluster_AngularFontAwesomeModule</title>
<polygon fill="none" stroke="#000000" stroke-dasharray="1,5" points="8,-70 8,-271 664,-271 664,-70 8,-70"/>
</g>
<g id="clust2" class="cluster">
<title>cluster_AngularFontAwesomeModule_declarations</title>
<polygon fill="none" stroke="#000000" points="296,-78 296,-130 520,-130 520,-78 296,-78"/>
</g>
<g id="clust4" class="cluster">
<title>cluster_AngularFontAwesomeModule_imports</title>
<polygon fill="none" stroke="#000000" points="528,-78 528,-130 656,-130 656,-78 528,-78"/>
</g>
<g id="clust5" class="cluster">
<title>cluster_AngularFontAwesomeModule_exports</title>
<polygon fill="none" stroke="#000000" points="294,-211 294,-263 522,-263 522,-211 294,-211"/>
</g>
<g id="clust7" class="cluster">
<title>cluster_AngularFontAwesomeModule_providers</title>
<polygon fill="none" stroke="#000000" points="16,-78 16,-130 288,-130 288,-78 16,-78"/>
</g>
<g id="clust8" class="cluster">
<title>cluster_AppRoutingModule</title>
<polygon fill="none" stroke="#000000" stroke-dasharray="1,5" points="8271,-70 8271,-271 8481,-271 8481,-70 8271,-70"/>
</g>
<g id="clust10" class="cluster">
<title>cluster_AppRoutingModule_imports</title>
<polygon fill="none" stroke="#000000" points="8279,-78 8279,-130 8473,-130 8473,-78 8279,-78"/>
</g>
<g id="clust11" class="cluster">
<title>cluster_AppRoutingModule_exports</title>
<polygon fill="none" stroke="#000000" points="8284,-211 8284,-263 8402,-263 8402,-211 8284,-211"/>
</g>
<g id="clust14" class="cluster">
<title>cluster_AppModule</title>
<polygon fill="none" stroke="#000000" stroke-dasharray="1,5" points="838,-138 838,-339 8263,-339 8263,-138 838,-138"/>
</g>
<g id="clust15" class="cluster">
<title>cluster_AppModule_declarations</title>
<polygon fill="none" stroke="#000000" points="4473,-146 4473,-198 8255,-198 8255,-146 4473,-146"/>
</g>
<g id="clust37" class="cluster">
<title>cluster_AppModule_imports</title>
<polygon fill="none" stroke="#000000" points="846,-146 846,-198 1975,-198 1975,-146 846,-146"/>
</g>
<g id="clust39" class="cluster">
<title>cluster_AppModule_bootstrap</title>
<polygon fill="none" stroke="#000000" points="4408,-279 4408,-331 4532,-331 4532,-279 4408,-279"/>
</g>
<g id="clust40" class="cluster">
<title>cluster_AppModule_providers</title>
<polygon fill="none" stroke="#000000" points="1983,-146 1983,-198 4465,-198 4465,-146 1983,-146"/>
</g>
<g id="clust41" class="cluster">
<title>cluster_SDKBrowserModule</title>
<polygon fill="none" stroke="#000000" stroke-dasharray="1,5" points="672,-138 672,-263 830,-263 830,-138 672,-138"/>
</g>
<g id="clust46" class="cluster">
<title>cluster_SDKBrowserModule_providers</title>
<polygon fill="none" stroke="#000000" points="680,-146 680,-198 822,-198 822,-146 680,-146"/>
</g>
<!-- AngularFontAwesomeComponent -->
<g id="node1" class="node">
<title>AngularFontAwesomeComponent</title>
<polygon fill="#ffffb3" stroke="#000000" points="512.3556,-122 303.6444,-122 303.6444,-86 512.3556,-86 512.3556,-122"/>
<text text-anchor="middle" x="408" y="-99.8" font-family="Times,serif" font-size="14.00" fill="#000000">AngularFontAwesomeComponent</text>
</g>
<!-- AngularFontAwesomeModule -->
<g id="node2" class="node">
<title>AngularFontAwesomeModule</title>
<polygon fill="#8dd3c7" stroke="#000000" points="501.573,-190 498.573,-194 477.573,-194 474.573,-190 314.427,-190 314.427,-154 501.573,-154 501.573,-190"/>
<text text-anchor="middle" x="408" y="-167.8" font-family="Times,serif" font-size="14.00" fill="#000000">AngularFontAwesomeModule</text>
</g>
<!-- AngularFontAwesomeComponent&#45;&gt;AngularFontAwesomeModule -->
<g id="edge1" class="edge">
<title>AngularFontAwesomeComponent&#45;&gt;AngularFontAwesomeModule</title>
<path fill="none" stroke="#000000" d="M408,-122.2228C408,-122.2228 408,-143.7269 408,-143.7269"/>
<polygon fill="#000000" stroke="#000000" points="404.5001,-143.7269 408,-153.7269 411.5001,-143.727 404.5001,-143.7269"/>
</g>
<!-- AngularFontAwesomeComponent  -->
<g id="node4" class="node">
<title>AngularFontAwesomeComponent </title>
<polygon fill="#fb8072" stroke="#000000" points="514.3559,-255 301.6441,-255 301.6441,-219 514.3559,-219 514.3559,-255"/>
<text text-anchor="middle" x="408" y="-232.8" font-family="Times,serif" font-size="14.00" fill="#000000">AngularFontAwesomeComponent </text>
</g>
<!-- AngularFontAwesomeModule&#45;&gt;AngularFontAwesomeComponent  -->
<g id="edge3" class="edge">
<title>AngularFontAwesomeModule&#45;&gt;AngularFontAwesomeComponent </title>
<path fill="none" stroke="#000000" stroke-dasharray="5,2" d="M408,-190.1061C408,-190.1061 408,-208.991 408,-208.991"/>
<polygon fill="#000000" stroke="#000000" points="404.5001,-208.9909 408,-218.991 411.5001,-208.991 404.5001,-208.9909"/>
</g>
<!-- CommonModule -->
<g id="node3" class="node">
<title>CommonModule</title>
<polygon fill="#8dd3c7" stroke="#000000" points="647.6681,-122 644.6681,-126 623.6681,-126 620.6681,-122 536.3319,-122 536.3319,-86 647.6681,-86 647.6681,-122"/>
<text text-anchor="middle" x="592" y="-99.8" font-family="Times,serif" font-size="14.00" fill="#000000">CommonModule</text>
</g>
<!-- CommonModule&#45;&gt;AngularFontAwesomeModule -->
<g id="edge2" class="edge">
<title>CommonModule&#45;&gt;AngularFontAwesomeModule</title>
<path fill="none" stroke="#000000" d="M573.3887,-122.2228C573.3887,-142.3652 573.3887,-172 573.3887,-172 573.3887,-172 511.8087,-172 511.8087,-172"/>
<polygon fill="#000000" stroke="#000000" points="511.8088,-168.5001 501.8087,-172 511.8087,-175.5001 511.8088,-168.5001"/>
</g>
<!-- AppRoutingModule -->
<g id="node7" class="node">
<title>AppRoutingModule</title>
<polygon fill="#8dd3c7" stroke="#000000" points="8407.2744,-190 8404.2744,-194 8383.2744,-194 8380.2744,-190 8278.7256,-190 8278.7256,-154 8407.2744,-154 8407.2744,-190"/>
<text text-anchor="middle" x="8343" y="-167.8" font-family="Times,serif" font-size="14.00" fill="#000000">AppRoutingModule</text>
</g>
<!-- CommonModule&#45;&gt;AppRoutingModule -->
<g id="edge5" class="edge">
<title>CommonModule&#45;&gt;AppRoutingModule</title>
<path fill="none" stroke="#000000" d="M647.8666,-104C1342.5832,-104 8282.9711,-104 8282.9711,-104 8282.9711,-104 8282.9711,-143.7772 8282.9711,-143.7772"/>
<polygon fill="#000000" stroke="#000000" points="8279.4711,-143.7772 8282.9711,-153.7772 8286.4711,-143.7773 8279.4711,-143.7772"/>
</g>
<!-- SDKBrowserModule -->
<g id="node54" class="node">
<title>SDKBrowserModule</title>
<polygon fill="#8dd3c7" stroke="#000000" points="820.4692,-255 817.4692,-259 796.4692,-259 793.4692,-255 685.5308,-255 685.5308,-219 820.4692,-219 820.4692,-255"/>
<text text-anchor="middle" x="753" y="-232.8" font-family="Times,serif" font-size="14.00" fill="#000000">SDKBrowserModule</text>
</g>
<!-- CommonModule&#45;&gt;SDKBrowserModule -->
<g id="edge53" class="edge">
<title>CommonModule&#45;&gt;SDKBrowserModule</title>
<path fill="none" stroke="#000000" d="M610.6113,-122.2142C610.6113,-158.6396 610.6113,-237 610.6113,-237 610.6113,-237 675.1418,-237 675.1418,-237"/>
<polygon fill="#000000" stroke="#000000" points="675.1418,-240.5001 685.1418,-237 675.1417,-233.5001 675.1418,-240.5001"/>
</g>
<!-- AngularFontAwesomeService -->
<g id="node5" class="node">
<title>AngularFontAwesomeService</title>
<ellipse fill="#fdb462" stroke="#000000" cx="152" cy="-104" rx="127.9102" ry="18"/>
<text text-anchor="middle" x="152" y="-99.8" font-family="Times,serif" font-size="14.00" fill="#000000">AngularFontAwesomeService</text>
</g>
<!-- AngularFontAwesomeService&#45;&gt;AngularFontAwesomeModule -->
<g id="edge4" class="edge">
<title>AngularFontAwesomeService&#45;&gt;AngularFontAwesomeModule</title>
<path fill="none" stroke="#000000" d="M152,-122.2228C152,-142.3652 152,-172 152,-172 152,-172 304.1287,-172 304.1287,-172"/>
<polygon fill="#000000" stroke="#000000" points="304.1287,-175.5001 314.1287,-172 304.1287,-168.5001 304.1287,-175.5001"/>
</g>
<!-- RouterModule.forRoot(args) -->
<g id="node6" class="node">
<title>RouterModule.forRoot(args)</title>
<polygon fill="#8dd3c7" stroke="#000000" points="8464.8419,-122 8461.8419,-126 8440.8419,-126 8437.8419,-122 8287.1581,-122 8287.1581,-86 8464.8419,-86 8464.8419,-122"/>
<text text-anchor="middle" x="8376" y="-99.8" font-family="Times,serif" font-size="14.00" fill="#000000">RouterModule.forRoot(args)</text>
</g>
<!-- RouterModule.forRoot(args)&#45;&gt;AppRoutingModule -->
<g id="edge6" class="edge">
<title>RouterModule.forRoot(args)&#45;&gt;AppRoutingModule</title>
<path fill="none" stroke="#000000" d="M8347.3582,-122.2228C8347.3582,-122.2228 8347.3582,-143.7269 8347.3582,-143.7269"/>
<polygon fill="#000000" stroke="#000000" points="8343.8582,-143.7269 8347.3582,-153.7269 8350.8582,-143.727 8343.8582,-143.7269"/>
</g>
<!-- RouterModule  -->
<g id="node8" class="node">
<title>RouterModule </title>
<polygon fill="#fb8072" stroke="#000000" points="8393.6523,-255 8292.3477,-255 8292.3477,-219 8393.6523,-219 8393.6523,-255"/>
<text text-anchor="middle" x="8343" y="-232.8" font-family="Times,serif" font-size="14.00" fill="#000000">RouterModule </text>
</g>
<!-- AppRoutingModule&#45;&gt;RouterModule  -->
<g id="edge7" class="edge">
<title>AppRoutingModule&#45;&gt;RouterModule </title>
<path fill="none" stroke="#000000" stroke-dasharray="5,2" d="M8343,-190.1061C8343,-190.1061 8343,-208.991 8343,-208.991"/>
<polygon fill="#000000" stroke="#000000" points="8339.5001,-208.9909 8343,-218.991 8346.5001,-208.991 8339.5001,-208.9909"/>
</g>
<!-- AppModule -->
<g id="node30" class="node">
<title>AppModule</title>
<polygon fill="#8dd3c7" stroke="#000000" points="4511.6571,-255 4508.6571,-259 4487.6571,-259 4484.6571,-255 4428.3429,-255 4428.3429,-219 4511.6571,-219 4511.6571,-255"/>
<text text-anchor="middle" x="4470" y="-232.8" font-family="Times,serif" font-size="14.00" fill="#000000">AppModule</text>
</g>
<!-- AppRoutingModule&#45;&gt;AppModule -->
<g id="edge30" class="edge">
<title>AppRoutingModule&#45;&gt;AppModule</title>
<path fill="none" stroke="#000000" d="M8285.5184,-190.1985C8285.5184,-214.3563 8285.5184,-254 8285.5184,-254 8285.5184,-254 4521.873,-254 4521.873,-254"/>
<polygon fill="#000000" stroke="#000000" points="4521.873,-250.5001 4511.873,-254 4521.8729,-257.5001 4521.873,-250.5001"/>
</g>
<!-- AppComponent -->
<g id="node9" class="node">
<title>AppComponent</title>
<polygon fill="#ffffb3" stroke="#000000" points="6277.9399,-190 6172.0601,-190 6172.0601,-154 6277.9399,-154 6277.9399,-190"/>
<text text-anchor="middle" x="6225" y="-167.8" font-family="Times,serif" font-size="14.00" fill="#000000">AppComponent</text>
</g>
<!-- AppComponent&#45;&gt;AppModule -->
<g id="edge8" class="edge">
<title>AppComponent&#45;&gt;AppModule</title>
<path fill="none" stroke="#000000" d="M6225,-190.1686C6225,-209.0898 6225,-236 6225,-236 6225,-236 4522.0809,-236 4522.0809,-236"/>
<polygon fill="#000000" stroke="#000000" points="4522.081,-232.5001 4512.0809,-236 4522.0809,-239.5001 4522.081,-232.5001"/>
</g>
<!-- SidebarComponent -->
<g id="node10" class="node">
<title>SidebarComponent</title>
<polygon fill="#ffffb3" stroke="#000000" points="6154.0954,-190 6029.9046,-190 6029.9046,-154 6154.0954,-154 6154.0954,-190"/>
<text text-anchor="middle" x="6092" y="-167.8" font-family="Times,serif" font-size="14.00" fill="#000000">SidebarComponent</text>
</g>
<!-- SidebarComponent&#45;&gt;AppModule -->
<g id="edge9" class="edge">
<title>SidebarComponent&#45;&gt;AppModule</title>
<path fill="none" stroke="#000000" d="M6092,-190.2667C6092,-208.5552 6092,-234 6092,-234 6092,-234 4521.7246,-234 4521.7246,-234"/>
<polygon fill="#000000" stroke="#000000" points="4521.7246,-230.5001 4511.7246,-234 4521.7245,-237.5001 4521.7246,-230.5001"/>
</g>
<!-- HomeComponent -->
<g id="node11" class="node">
<title>HomeComponent</title>
<polygon fill="#ffffb3" stroke="#000000" points="6011.5451,-190 5896.4549,-190 5896.4549,-154 6011.5451,-154 6011.5451,-190"/>
<text text-anchor="middle" x="5954" y="-167.8" font-family="Times,serif" font-size="14.00" fill="#000000">HomeComponent</text>
</g>
<!-- HomeComponent&#45;&gt;AppModule -->
<g id="edge10" class="edge">
<title>HomeComponent&#45;&gt;AppModule</title>
<path fill="none" stroke="#000000" d="M5954,-190.302C5954,-208.2699 5954,-233 5954,-233 5954,-233 4522.0228,-233 4522.0228,-233"/>
<polygon fill="#000000" stroke="#000000" points="4522.0228,-229.5001 4512.0228,-233 4522.0227,-236.5001 4522.0228,-229.5001"/>
</g>
<!-- ProjetosComponent -->
<g id="node12" class="node">
<title>ProjetosComponent</title>
<polygon fill="#ffffb3" stroke="#000000" points="5878.7162,-190 5751.2838,-190 5751.2838,-154 5878.7162,-154 5878.7162,-190"/>
<text text-anchor="middle" x="5815" y="-167.8" font-family="Times,serif" font-size="14.00" fill="#000000">ProjetosComponent</text>
</g>
<!-- ProjetosComponent&#45;&gt;AppModule -->
<g id="edge11" class="edge">
<title>ProjetosComponent&#45;&gt;AppModule</title>
<path fill="none" stroke="#000000" d="M5815,-190.0225C5815,-207.3734 5815,-231 5815,-231 5815,-231 4521.7281,-231 4521.7281,-231"/>
<polygon fill="#000000" stroke="#000000" points="4521.7281,-227.5001 4511.7281,-231 4521.728,-234.5001 4521.7281,-227.5001"/>
</g>
<!-- ProjetoCriaComponent -->
<g id="node13" class="node">
<title>ProjetoCriaComponent</title>
<polygon fill="#ffffb3" stroke="#000000" points="5732.8739,-190 5587.1261,-190 5587.1261,-154 5732.8739,-154 5732.8739,-190"/>
<text text-anchor="middle" x="5660" y="-167.8" font-family="Times,serif" font-size="14.00" fill="#000000">ProjetoCriaComponent</text>
</g>
<!-- ProjetoCriaComponent&#45;&gt;AppModule -->
<g id="edge12" class="edge">
<title>ProjetoCriaComponent&#45;&gt;AppModule</title>
<path fill="none" stroke="#000000" d="M5660,-190.0352C5660,-206.7344 5660,-229 5660,-229 5660,-229 4522.0032,-229 4522.0032,-229"/>
<polygon fill="#000000" stroke="#000000" points="4522.0032,-225.5001 4512.0032,-229 4522.0032,-232.5001 4522.0032,-225.5001"/>
</g>
<!-- ProjetoEditaComponent -->
<g id="node14" class="node">
<title>ProjetoEditaComponent</title>
<polygon fill="#ffffb3" stroke="#000000" points="5568.8201,-190 5417.1799,-190 5417.1799,-154 5568.8201,-154 5568.8201,-190"/>
<text text-anchor="middle" x="5493" y="-167.8" font-family="Times,serif" font-size="14.00" fill="#000000">ProjetoEditaComponent</text>
</g>
<!-- ProjetoEditaComponent&#45;&gt;AppModule -->
<g id="edge13" class="edge">
<title>ProjetoEditaComponent&#45;&gt;AppModule</title>
<path fill="none" stroke="#000000" d="M5493,-190.027C5493,-206.3976 5493,-228 5493,-228 5493,-228 4521.6894,-228 4521.6894,-228"/>
<polygon fill="#000000" stroke="#000000" points="4521.6894,-224.5001 4511.6894,-228 4521.6893,-231.5001 4521.6894,-224.5001"/>
</g>
<!-- ProjetoExibeComponent -->
<g id="node15" class="node">
<title>ProjetoExibeComponent</title>
<polygon fill="#ffffb3" stroke="#000000" points="5399.4298,-190 5244.5702,-190 5244.5702,-154 5399.4298,-154 5399.4298,-190"/>
<text text-anchor="middle" x="5322" y="-167.8" font-family="Times,serif" font-size="14.00" fill="#000000">ProjetoExibeComponent</text>
</g>
<!-- ProjetoExibeComponent&#45;&gt;AppModule -->
<g id="edge14" class="edge">
<title>ProjetoExibeComponent&#45;&gt;AppModule</title>
<path fill="none" stroke="#000000" d="M5322,-190.2819C5322,-205.9478 5322,-226 5322,-226 5322,-226 4521.6705,-226 4521.6705,-226"/>
<polygon fill="#000000" stroke="#000000" points="4521.6705,-222.5001 4511.6705,-226 4521.6705,-229.5001 4521.6705,-222.5001"/>
</g>
<!-- CanvasProjetoComponent -->
<g id="node16" class="node">
<title>CanvasProjetoComponent</title>
<polygon fill="#ffffb3" stroke="#000000" points="5226.4818,-190 5063.5182,-190 5063.5182,-154 5226.4818,-154 5226.4818,-190"/>
<text text-anchor="middle" x="5145" y="-167.8" font-family="Times,serif" font-size="14.00" fill="#000000">CanvasProjetoComponent</text>
</g>
<!-- CanvasProjetoComponent&#45;&gt;AppModule -->
<g id="edge15" class="edge">
<title>CanvasProjetoComponent&#45;&gt;AppModule</title>
<path fill="none" stroke="#000000" d="M5145,-190.1871C5145,-205.1824 5145,-224 5145,-224 5145,-224 4521.7149,-224 4521.7149,-224"/>
<polygon fill="#000000" stroke="#000000" points="4521.7149,-220.5001 4511.7149,-224 4521.7148,-227.5001 4521.7149,-220.5001"/>
</g>
<!-- ProjetoCanvasCriaComponent -->
<g id="node17" class="node">
<title>ProjetoCanvasCriaComponent</title>
<polygon fill="#ffffb3" stroke="#000000" points="5045.5842,-190 4858.4158,-190 4858.4158,-154 5045.5842,-154 5045.5842,-190"/>
<text text-anchor="middle" x="4952" y="-167.8" font-family="Times,serif" font-size="14.00" fill="#000000">ProjetoCanvasCriaComponent</text>
</g>
<!-- ProjetoCanvasCriaComponent&#45;&gt;AppModule -->
<g id="edge16" class="edge">
<title>ProjetoCanvasCriaComponent&#45;&gt;AppModule</title>
<path fill="none" stroke="#000000" d="M4952,-190.1243C4952,-204.7832 4952,-223 4952,-223 4952,-223 4521.9312,-223 4521.9312,-223"/>
<polygon fill="#000000" stroke="#000000" points="4521.9312,-219.5001 4511.9312,-223 4521.9311,-226.5001 4521.9312,-219.5001"/>
</g>
<!-- ProjetoCanvasEditaComponent -->
<g id="node18" class="node">
<title>ProjetoCanvasEditaComponent</title>
<polygon fill="#ffffb3" stroke="#000000" points="4840.0308,-190 4647.9692,-190 4647.9692,-154 4840.0308,-154 4840.0308,-190"/>
<text text-anchor="middle" x="4744" y="-167.8" font-family="Times,serif" font-size="14.00" fill="#000000">ProjetoCanvasEditaComponent</text>
</g>
<!-- ProjetoCanvasEditaComponent&#45;&gt;AppModule -->
<g id="edge17" class="edge">
<title>ProjetoCanvasEditaComponent&#45;&gt;AppModule</title>
<path fill="none" stroke="#000000" d="M4744,-190.2458C4744,-204.1772 4744,-221 4744,-221 4744,-221 4521.913,-221 4521.913,-221"/>
<polygon fill="#000000" stroke="#000000" points="4521.913,-217.5001 4511.913,-221 4521.9129,-224.5001 4521.913,-217.5001"/>
</g>
<!-- CanvasMvpComponent -->
<g id="node19" class="node">
<title>CanvasMvpComponent</title>
<polygon fill="#ffffb3" stroke="#000000" points="4629.4874,-190 4480.5126,-190 4480.5126,-154 4629.4874,-154 4629.4874,-190"/>
<text text-anchor="middle" x="4555" y="-167.8" font-family="Times,serif" font-size="14.00" fill="#000000">CanvasMvpComponent</text>
</g>
<!-- CanvasMvpComponent&#45;&gt;AppModule -->
<g id="edge18" class="edge">
<title>CanvasMvpComponent&#45;&gt;AppModule</title>
<path fill="none" stroke="#000000" d="M4496.1673,-190.1061C4496.1673,-190.1061 4496.1673,-208.991 4496.1673,-208.991"/>
<polygon fill="#000000" stroke="#000000" points="4492.6673,-208.9909 4496.1673,-218.991 4499.6673,-208.991 4492.6673,-208.9909"/>
</g>
<!-- MvpCanvasCriaComponent -->
<g id="node20" class="node">
<title>MvpCanvasCriaComponent</title>
<polygon fill="#ffffb3" stroke="#000000" points="8246.5898,-190 8073.4102,-190 8073.4102,-154 8246.5898,-154 8246.5898,-190"/>
<text text-anchor="middle" x="8160" y="-167.8" font-family="Times,serif" font-size="14.00" fill="#000000">MvpCanvasCriaComponent</text>
</g>
<!-- MvpCanvasCriaComponent&#45;&gt;AppModule -->
<g id="edge19" class="edge">
<title>MvpCanvasCriaComponent&#45;&gt;AppModule</title>
<path fill="none" stroke="#000000" d="M8160,-190.1532C8160,-213.7566 8160,-252 8160,-252 8160,-252 4521.7577,-252 4521.7577,-252"/>
<polygon fill="#000000" stroke="#000000" points="4521.7578,-248.5001 4511.7577,-252 4521.7577,-255.5001 4521.7578,-248.5001"/>
</g>
<!-- MvpCanvasEditaComponent -->
<g id="node21" class="node">
<title>MvpCanvasEditaComponent</title>
<polygon fill="#ffffb3" stroke="#000000" points="8055.0364,-190 7876.9636,-190 7876.9636,-154 8055.0364,-154 8055.0364,-190"/>
<text text-anchor="middle" x="7966" y="-167.8" font-family="Times,serif" font-size="14.00" fill="#000000">MvpCanvasEditaComponent</text>
</g>
<!-- MvpCanvasEditaComponent&#45;&gt;AppModule -->
<g id="edge20" class="edge">
<title>MvpCanvasEditaComponent&#45;&gt;AppModule</title>
<path fill="none" stroke="#000000" d="M7966,-190.3228C7966,-213.6602 7966,-251 7966,-251 7966,-251 4521.6972,-251 4521.6972,-251"/>
<polygon fill="#000000" stroke="#000000" points="4521.6972,-247.5001 4511.6972,-251 4521.6972,-254.5001 4521.6972,-247.5001"/>
</g>
<!-- CanvasPropostaValorComponent -->
<g id="node22" class="node">
<title>CanvasPropostaValorComponent</title>
<polygon fill="#ffffb3" stroke="#000000" points="7858.9086,-190 7655.0914,-190 7655.0914,-154 7858.9086,-154 7858.9086,-190"/>
<text text-anchor="middle" x="7757" y="-167.8" font-family="Times,serif" font-size="14.00" fill="#000000">CanvasPropostaValorComponent</text>
</g>
<!-- CanvasPropostaValorComponent&#45;&gt;AppModule -->
<g id="edge21" class="edge">
<title>CanvasPropostaValorComponent&#45;&gt;AppModule</title>
<path fill="none" stroke="#000000" d="M7757,-190.2479C7757,-213.0179 7757,-249 7757,-249 7757,-249 4521.8588,-249 4521.8588,-249"/>
<polygon fill="#000000" stroke="#000000" points="4521.8589,-245.5001 4511.8588,-249 4521.8588,-252.5001 4521.8589,-245.5001"/>
</g>
<!-- CanvasDorGanhoComponent -->
<g id="node23" class="node">
<title>CanvasDorGanhoComponent</title>
<polygon fill="#ffffb3" stroke="#000000" points="7636.6316,-190 7455.3684,-190 7455.3684,-154 7636.6316,-154 7636.6316,-190"/>
<text text-anchor="middle" x="7546" y="-167.8" font-family="Times,serif" font-size="14.00" fill="#000000">CanvasDorGanhoComponent</text>
</g>
<!-- CanvasDorGanhoComponent&#45;&gt;AppModule -->
<g id="edge22" class="edge">
<title>CanvasDorGanhoComponent&#45;&gt;AppModule</title>
<path fill="none" stroke="#000000" d="M7546,-190.1554C7546,-212.3519 7546,-247 7546,-247 7546,-247 4521.7331,-247 4521.7331,-247"/>
<polygon fill="#000000" stroke="#000000" points="4521.7331,-243.5001 4511.7331,-247 4521.7331,-250.5001 4521.7331,-243.5001"/>
</g>
<!-- DorGanhoCanvasCriaComponent -->
<g id="node24" class="node">
<title>DorGanhoCanvasCriaComponent</title>
<polygon fill="#ffffb3" stroke="#000000" points="7436.7338,-190 7231.2662,-190 7231.2662,-154 7436.7338,-154 7436.7338,-190"/>
<text text-anchor="middle" x="7334" y="-167.8" font-family="Times,serif" font-size="14.00" fill="#000000">DorGanhoCanvasCriaComponent</text>
</g>
<!-- DorGanhoCanvasCriaComponent&#45;&gt;AppModule -->
<g id="edge23" class="edge">
<title>DorGanhoCanvasCriaComponent&#45;&gt;AppModule</title>
<path fill="none" stroke="#000000" d="M7334,-190.2921C7334,-212.2057 7334,-246 7334,-246 7334,-246 4521.8686,-246 4521.8686,-246"/>
<polygon fill="#000000" stroke="#000000" points="4521.8686,-242.5001 4511.8686,-246 4521.8686,-249.5001 4521.8686,-242.5001"/>
</g>
<!-- DorGanhoCanvasEditaComponent -->
<g id="node25" class="node">
<title>DorGanhoCanvasEditaComponent</title>
<polygon fill="#ffffb3" stroke="#000000" points="7213.6797,-190 7002.3203,-190 7002.3203,-154 7213.6797,-154 7213.6797,-190"/>
<text text-anchor="middle" x="7108" y="-167.8" font-family="Times,serif" font-size="14.00" fill="#000000">DorGanhoCanvasEditaComponent</text>
</g>
<!-- DorGanhoCanvasEditaComponent&#45;&gt;AppModule -->
<g id="edge24" class="edge">
<title>DorGanhoCanvasEditaComponent&#45;&gt;AppModule</title>
<path fill="none" stroke="#000000" d="M7108,-190.1686C7108,-211.498 7108,-244 7108,-244 7108,-244 4521.7026,-244 4521.7026,-244"/>
<polygon fill="#000000" stroke="#000000" points="4521.7026,-240.5001 4511.7026,-244 4521.7026,-247.5001 4521.7026,-240.5001"/>
</g>
<!-- PropostaValorComponent -->
<g id="node26" class="node">
<title>PropostaValorComponent</title>
<polygon fill="#ffffb3" stroke="#000000" points="6984.1979,-190 6821.8021,-190 6821.8021,-154 6984.1979,-154 6984.1979,-190"/>
<text text-anchor="middle" x="6903" y="-167.8" font-family="Times,serif" font-size="14.00" fill="#000000">PropostaValorComponent</text>
</g>
<!-- PropostaValorComponent&#45;&gt;AppModule -->
<g id="edge25" class="edge">
<title>PropostaValorComponent&#45;&gt;AppModule</title>
<path fill="none" stroke="#000000" d="M6903,-190.0267C6903,-210.7672 6903,-242 6903,-242 6903,-242 4521.7174,-242 4521.7174,-242"/>
<polygon fill="#000000" stroke="#000000" points="4521.7174,-238.5001 4511.7174,-242 4521.7173,-245.5001 4521.7174,-238.5001"/>
</g>
<!-- DetalheValorComponent -->
<g id="node27" class="node">
<title>DetalheValorComponent</title>
<polygon fill="#ffffb3" stroke="#000000" points="6804.2366,-190 6647.7634,-190 6647.7634,-154 6804.2366,-154 6804.2366,-190"/>
<text text-anchor="middle" x="6726" y="-167.8" font-family="Times,serif" font-size="14.00" fill="#000000">DetalheValorComponent</text>
</g>
<!-- DetalheValorComponent&#45;&gt;AppModule -->
<g id="edge26" class="edge">
<title>DetalheValorComponent&#45;&gt;AppModule</title>
<path fill="none" stroke="#000000" d="M6726,-190.1289C6726,-210.5724 6726,-241 6726,-241 6726,-241 4522.0621,-241 4522.0621,-241"/>
<polygon fill="#000000" stroke="#000000" points="4522.0621,-237.5001 4512.0621,-241 4522.0621,-244.5001 4522.0621,-237.5001"/>
</g>
<!-- ReceitaProjetoComponent -->
<g id="node28" class="node">
<title>ReceitaProjetoComponent</title>
<polygon fill="#ffffb3" stroke="#000000" points="6629.7478,-190 6466.2522,-190 6466.2522,-154 6629.7478,-154 6629.7478,-190"/>
<text text-anchor="middle" x="6548" y="-167.8" font-family="Times,serif" font-size="14.00" fill="#000000">ReceitaProjetoComponent</text>
</g>
<!-- ReceitaProjetoComponent&#45;&gt;AppModule -->
<g id="edge27" class="edge">
<title>ReceitaProjetoComponent&#45;&gt;AppModule</title>
<path fill="none" stroke="#000000" d="M6548,-190.308C6548,-210.1455 6548,-239 6548,-239 6548,-239 4521.9784,-239 4521.9784,-239"/>
<polygon fill="#000000" stroke="#000000" points="4521.9785,-235.5001 4511.9784,-239 4521.9784,-242.5001 4521.9785,-235.5001"/>
</g>
<!-- ReceitaEditaComponent -->
<g id="node29" class="node">
<title>ReceitaEditaComponent</title>
<polygon fill="#ffffb3" stroke="#000000" points="6448.3571,-190 6295.6429,-190 6295.6429,-154 6448.3571,-154 6448.3571,-190"/>
<text text-anchor="middle" x="6372" y="-167.8" font-family="Times,serif" font-size="14.00" fill="#000000">ReceitaEditaComponent</text>
</g>
<!-- ReceitaEditaComponent&#45;&gt;AppModule -->
<g id="edge28" class="edge">
<title>ReceitaEditaComponent&#45;&gt;AppModule</title>
<path fill="none" stroke="#000000" d="M6372,-190.1061C6372,-209.3391 6372,-237 6372,-237 6372,-237 4521.9427,-237 4521.9427,-237"/>
<polygon fill="#000000" stroke="#000000" points="4521.9427,-233.5001 4511.9427,-237 4521.9426,-240.5001 4521.9427,-233.5001"/>
</g>
<!-- AppComponent  -->
<g id="node39" class="node">
<title>AppComponent </title>
<polygon fill="#80b1d3" stroke="#000000" points="4524.439,-323 4415.561,-323 4415.561,-287 4524.439,-287 4524.439,-323"/>
<text text-anchor="middle" x="4470" y="-300.8" font-family="Times,serif" font-size="14.00" fill="#000000">AppComponent </text>
</g>
<!-- AppModule&#45;&gt;AppComponent  -->
<g id="edge38" class="edge">
<title>AppModule&#45;&gt;AppComponent </title>
<path fill="none" stroke="#000000" stroke-dasharray="1,5" d="M4470,-255.2228C4470,-255.2228 4470,-276.7269 4470,-276.7269"/>
<polygon fill="#000000" stroke="#000000" points="4466.5001,-276.7269 4470,-286.7269 4473.5001,-276.727 4466.5001,-276.7269"/>
</g>
<!-- BrowserModule -->
<g id="node31" class="node">
<title>BrowserModule</title>
<polygon fill="#8dd3c7" stroke="#000000" points="1097.4734,-190 1094.4734,-194 1073.4734,-194 1070.4734,-190 990.5266,-190 990.5266,-154 1097.4734,-154 1097.4734,-190"/>
<text text-anchor="middle" x="1044" y="-167.8" font-family="Times,serif" font-size="14.00" fill="#000000">BrowserModule</text>
</g>
<!-- BrowserModule&#45;&gt;AppModule -->
<g id="edge29" class="edge">
<title>BrowserModule&#45;&gt;AppModule</title>
<path fill="none" stroke="#000000" d="M1044,-190.2479C1044,-213.0179 1044,-249 1044,-249 1044,-249 4418.2251,-249 4418.2251,-249"/>
<polygon fill="#000000" stroke="#000000" points="4418.2251,-252.5001 4428.2251,-249 4418.225,-245.5001 4418.2251,-252.5001"/>
</g>
<!-- FormsModule -->
<g id="node32" class="node">
<title>FormsModule</title>
<polygon fill="#8dd3c7" stroke="#000000" points="1966.8288,-190 1963.8288,-194 1942.8288,-194 1939.8288,-190 1871.1712,-190 1871.1712,-154 1966.8288,-154 1966.8288,-190"/>
<text text-anchor="middle" x="1919" y="-167.8" font-family="Times,serif" font-size="14.00" fill="#000000">FormsModule</text>
</g>
<!-- FormsModule&#45;&gt;AppModule -->
<g id="edge31" class="edge">
<title>FormsModule&#45;&gt;AppModule</title>
<path fill="none" stroke="#000000" d="M1919,-190.2228C1919,-210.3652 1919,-240 1919,-240 1919,-240 4418.1136,-240 4418.1136,-240"/>
<polygon fill="#000000" stroke="#000000" points="4418.1136,-243.5001 4428.1136,-240 4418.1135,-236.5001 4418.1136,-243.5001"/>
</g>
<!-- HttpClientModule -->
<g id="node33" class="node">
<title>HttpClientModule</title>
<polygon fill="#8dd3c7" stroke="#000000" points="972.1611,-190 969.1611,-194 948.1611,-194 945.1611,-190 853.8389,-190 853.8389,-154 972.1611,-154 972.1611,-190"/>
<text text-anchor="middle" x="913" y="-167.8" font-family="Times,serif" font-size="14.00" fill="#000000">HttpClientModule</text>
</g>
<!-- HttpClientModule&#45;&gt;AppModule -->
<g id="edge32" class="edge">
<title>HttpClientModule&#45;&gt;AppModule</title>
<path fill="none" stroke="#000000" d="M932.7768,-190.3228C932.7768,-213.6602 932.7768,-251 932.7768,-251 932.7768,-251 4418.123,-251 4418.123,-251"/>
<polygon fill="#000000" stroke="#000000" points="4418.1231,-254.5001 4428.123,-251 4418.123,-247.5001 4418.1231,-254.5001"/>
</g>
<!-- HttpClientModule&#45;&gt;SDKBrowserModule -->
<g id="edge54" class="edge">
<title>HttpClientModule&#45;&gt;SDKBrowserModule</title>
<path fill="none" stroke="#000000" d="M893.2232,-190.1532C893.2232,-213.7566 893.2232,-252 893.2232,-252 893.2232,-252 830.6472,-252 830.6472,-252"/>
<polygon fill="#000000" stroke="#000000" points="830.6472,-248.5001 820.6472,-252 830.6472,-255.5001 830.6472,-248.5001"/>
</g>
<!-- MatDialogModule -->
<g id="node34" class="node">
<title>MatDialogModule</title>
<polygon fill="#8dd3c7" stroke="#000000" points="1853.2022,-190 1850.2022,-194 1829.2022,-194 1826.2022,-190 1732.7978,-190 1732.7978,-154 1853.2022,-154 1853.2022,-190"/>
<text text-anchor="middle" x="1793" y="-167.8" font-family="Times,serif" font-size="14.00" fill="#000000">MatDialogModule</text>
</g>
<!-- MatDialogModule&#45;&gt;AppModule -->
<g id="edge33" class="edge">
<title>MatDialogModule&#45;&gt;AppModule</title>
<path fill="none" stroke="#000000" d="M1793,-190.0267C1793,-210.7672 1793,-242 1793,-242 1793,-242 4418.2198,-242 4418.2198,-242"/>
<polygon fill="#000000" stroke="#000000" points="4418.2198,-245.5001 4428.2198,-242 4418.2197,-238.5001 4418.2198,-245.5001"/>
</g>
<!-- BrowserAnimationsModule -->
<g id="node35" class="node">
<title>BrowserAnimationsModule</title>
<polygon fill="#8dd3c7" stroke="#000000" points="1715.3019,-190 1712.3019,-194 1691.3019,-194 1688.3019,-190 1542.6981,-190 1542.6981,-154 1715.3019,-154 1715.3019,-190"/>
<text text-anchor="middle" x="1629" y="-167.8" font-family="Times,serif" font-size="14.00" fill="#000000">BrowserAnimationsModule</text>
</g>
<!-- BrowserAnimationsModule&#45;&gt;AppModule -->
<g id="edge34" class="edge">
<title>BrowserAnimationsModule&#45;&gt;AppModule</title>
<path fill="none" stroke="#000000" d="M1629,-190.2843C1629,-211.3211 1629,-243 1629,-243 1629,-243 4418.1908,-243 4418.1908,-243"/>
<polygon fill="#000000" stroke="#000000" points="4418.1908,-246.5001 4428.1908,-243 4418.1908,-239.5001 4418.1908,-246.5001"/>
</g>
<!-- MatFormFieldModule -->
<g id="node36" class="node">
<title>MatFormFieldModule</title>
<polygon fill="#8dd3c7" stroke="#000000" points="1524.712,-190 1521.712,-194 1500.712,-194 1497.712,-190 1383.288,-190 1383.288,-154 1524.712,-154 1524.712,-190"/>
<text text-anchor="middle" x="1454" y="-167.8" font-family="Times,serif" font-size="14.00" fill="#000000">MatFormFieldModule</text>
</g>
<!-- MatFormFieldModule&#45;&gt;AppModule -->
<g id="edge35" class="edge">
<title>MatFormFieldModule&#45;&gt;AppModule</title>
<path fill="none" stroke="#000000" d="M1454,-190.0449C1454,-211.6623 1454,-245 1454,-245 1454,-245 4418.2271,-245 4418.2271,-245"/>
<polygon fill="#000000" stroke="#000000" points="4418.2271,-248.5001 4428.2271,-245 4418.2271,-241.5001 4418.2271,-248.5001"/>
</g>
<!-- MatInputModule -->
<g id="node37" class="node">
<title>MatInputModule</title>
<polygon fill="#8dd3c7" stroke="#000000" points="1365.6513,-190 1362.6513,-194 1341.6513,-194 1338.6513,-190 1254.3487,-190 1254.3487,-154 1365.6513,-154 1365.6513,-190"/>
<text text-anchor="middle" x="1310" y="-167.8" font-family="Times,serif" font-size="14.00" fill="#000000">MatInputModule</text>
</g>
<!-- MatInputModule&#45;&gt;AppModule -->
<g id="edge36" class="edge">
<title>MatInputModule&#45;&gt;AppModule</title>
<path fill="none" stroke="#000000" d="M1310,-190.2921C1310,-212.2057 1310,-246 1310,-246 1310,-246 4418.3064,-246 4418.3064,-246"/>
<polygon fill="#000000" stroke="#000000" points="4418.3065,-249.5001 4428.3064,-246 4418.3064,-242.5001 4418.3065,-249.5001"/>
</g>
<!-- MatButtonModule -->
<g id="node38" class="node">
<title>MatButtonModule</title>
<polygon fill="#8dd3c7" stroke="#000000" points="1236.2176,-190 1233.2176,-194 1212.2176,-194 1209.2176,-190 1115.7824,-190 1115.7824,-154 1236.2176,-154 1236.2176,-190"/>
<text text-anchor="middle" x="1176" y="-167.8" font-family="Times,serif" font-size="14.00" fill="#000000">MatButtonModule</text>
</g>
<!-- MatButtonModule&#45;&gt;AppModule -->
<g id="edge37" class="edge">
<title>MatButtonModule&#45;&gt;AppModule</title>
<path fill="none" stroke="#000000" d="M1176,-190.0109C1176,-212.4852 1176,-248 1176,-248 1176,-248 4418.052,-248 4418.052,-248"/>
<polygon fill="#000000" stroke="#000000" points="4418.052,-251.5001 4428.052,-248 4418.052,-244.5001 4418.052,-251.5001"/>
</g>
<!-- ProjetoService -->
<g id="node40" class="node">
<title>ProjetoService</title>
<ellipse fill="#fdb462" stroke="#000000" cx="3107" cy="-172" rx="67.7721" ry="18"/>
<text text-anchor="middle" x="3107" y="-167.8" font-family="Times,serif" font-size="14.00" fill="#000000">ProjetoService</text>
</g>
<!-- ProjetoService&#45;&gt;AppModule -->
<g id="edge39" class="edge">
<title>ProjetoService&#45;&gt;AppModule</title>
<path fill="none" stroke="#000000" d="M3107,-190.027C3107,-206.3976 3107,-228 3107,-228 3107,-228 4418.0895,-228 4418.0895,-228"/>
<polygon fill="#000000" stroke="#000000" points="4418.0895,-231.5001 4428.0895,-228 4418.0894,-224.5001 4418.0895,-231.5001"/>
</g>
<!-- ProjetoApi -->
<g id="node41" class="node">
<title>ProjetoApi</title>
<ellipse fill="#fdb462" stroke="#000000" cx="2968" cy="-172" rx="53.3283" ry="18"/>
<text text-anchor="middle" x="2968" y="-167.8" font-family="Times,serif" font-size="14.00" fill="#000000">ProjetoApi</text>
</g>
<!-- ProjetoApi&#45;&gt;AppModule -->
<g id="edge40" class="edge">
<title>ProjetoApi&#45;&gt;AppModule</title>
<path fill="none" stroke="#000000" d="M2968,-190.0336C2968,-207.0597 2968,-230 2968,-230 2968,-230 4418.2603,-230 4418.2603,-230"/>
<polygon fill="#000000" stroke="#000000" points="4418.2603,-233.5001 4428.2603,-230 4418.2602,-226.5001 4418.2603,-233.5001"/>
</g>
<!-- ProjetoCanvasApi -->
<g id="node42" class="node">
<title>ProjetoCanvasApi</title>
<ellipse fill="#fdb462" stroke="#000000" cx="2815" cy="-172" rx="81.6808" ry="18"/>
<text text-anchor="middle" x="2815" y="-167.8" font-family="Times,serif" font-size="14.00" fill="#000000">ProjetoCanvasApi</text>
</g>
<!-- ProjetoCanvasApi&#45;&gt;AppModule -->
<g id="edge41" class="edge">
<title>ProjetoCanvasApi&#45;&gt;AppModule</title>
<path fill="none" stroke="#000000" d="M2815,-190.0225C2815,-207.3734 2815,-231 2815,-231 2815,-231 4418.2619,-231 4418.2619,-231"/>
<polygon fill="#000000" stroke="#000000" points="4418.262,-234.5001 4428.2619,-231 4418.2619,-227.5001 4418.262,-234.5001"/>
</g>
<!-- HttpClient -->
<g id="node43" class="node">
<title>HttpClient</title>
<ellipse fill="#fdb462" stroke="#000000" cx="2663" cy="-172" rx="51.6208" ry="18"/>
<text text-anchor="middle" x="2663" y="-167.8" font-family="Times,serif" font-size="14.00" fill="#000000">HttpClient</text>
</g>
<!-- HttpClient&#45;&gt;AppModule -->
<g id="edge42" class="edge">
<title>HttpClient&#45;&gt;AppModule</title>
<path fill="none" stroke="#000000" d="M2663,-190.302C2663,-208.2699 2663,-233 2663,-233 2663,-233 4417.9931,-233 4417.9931,-233"/>
<polygon fill="#000000" stroke="#000000" points="4417.9931,-236.5001 4427.9931,-233 4417.9931,-229.5001 4417.9931,-236.5001"/>
</g>
<!-- SocketConnection -->
<g id="node44" class="node">
<title>SocketConnection</title>
<ellipse fill="#fdb462" stroke="#000000" cx="2073" cy="-172" rx="81.6847" ry="18"/>
<text text-anchor="middle" x="2073" y="-167.8" font-family="Times,serif" font-size="14.00" fill="#000000">SocketConnection</text>
</g>
<!-- SocketConnection&#45;&gt;AppModule -->
<g id="edge43" class="edge">
<title>SocketConnection&#45;&gt;AppModule</title>
<path fill="none" stroke="#000000" d="M2100.2807,-189.2542C2100.2807,-209.1058 2100.2807,-239 2100.2807,-239 2100.2807,-239 4418.1159,-239 4418.1159,-239"/>
<polygon fill="#000000" stroke="#000000" points="4418.1159,-242.5001 4428.1159,-239 4418.1158,-235.5001 4418.1159,-242.5001"/>
</g>
<!-- SocketConnection&#45;&gt;SDKBrowserModule -->
<g id="edge56" class="edge">
<title>SocketConnection&#45;&gt;SDKBrowserModule</title>
<path fill="none" stroke="#000000" d="M2045.7193,-188.9905C2045.7193,-213.0088 2045.7193,-254 2045.7193,-254 2045.7193,-254 830.6821,-254 830.6821,-254"/>
<polygon fill="#000000" stroke="#000000" points="830.6821,-250.5001 820.6821,-254 830.6821,-257.5001 830.6821,-250.5001"/>
</g>
<!-- SocketDriver -->
<g id="node45" class="node">
<title>SocketDriver</title>
<ellipse fill="#fdb462" stroke="#000000" cx="2531" cy="-172" rx="62.5373" ry="18"/>
<text text-anchor="middle" x="2531" y="-167.8" font-family="Times,serif" font-size="14.00" fill="#000000">SocketDriver</text>
</g>
<!-- SocketDriver&#45;&gt;AppModule -->
<g id="edge44" class="edge">
<title>SocketDriver&#45;&gt;AppModule</title>
<path fill="none" stroke="#000000" d="M2531,-190.2667C2531,-208.5552 2531,-234 2531,-234 2531,-234 4418.1522,-234 4418.1522,-234"/>
<polygon fill="#000000" stroke="#000000" points="4418.1523,-237.5001 4428.1522,-234 4418.1522,-230.5001 4418.1523,-237.5001"/>
</g>
<!-- SDKModels -->
<g id="node46" class="node">
<title>SDKModels</title>
<ellipse fill="#fdb462" stroke="#000000" cx="2391" cy="-172" rx="59.1295" ry="18"/>
<text text-anchor="middle" x="2391" y="-167.8" font-family="Times,serif" font-size="14.00" fill="#000000">SDKModels</text>
</g>
<!-- SDKModels&#45;&gt;AppModule -->
<g id="edge45" class="edge">
<title>SDKModels&#45;&gt;AppModule</title>
<path fill="none" stroke="#000000" d="M2391,-190.1686C2391,-209.0898 2391,-236 2391,-236 2391,-236 4418.0014,-236 4418.0014,-236"/>
<polygon fill="#000000" stroke="#000000" points="4418.0014,-239.5001 4428.0014,-236 4418.0013,-232.5001 4418.0014,-239.5001"/>
</g>
<!-- LoopBackAuth -->
<g id="node47" class="node">
<title>LoopBackAuth</title>
<ellipse fill="#fdb462" stroke="#000000" cx="2243" cy="-172" rx="70.6509" ry="18"/>
<text text-anchor="middle" x="2243" y="-167.8" font-family="Times,serif" font-size="14.00" fill="#000000">LoopBackAuth</text>
</g>
<!-- LoopBackAuth&#45;&gt;AppModule -->
<g id="edge46" class="edge">
<title>LoopBackAuth&#45;&gt;AppModule</title>
<path fill="none" stroke="#000000" d="M2243,-190.1061C2243,-209.3391 2243,-237 2243,-237 2243,-237 4417.9913,-237 4417.9913,-237"/>
<polygon fill="#000000" stroke="#000000" points="4417.9913,-240.5001 4427.9913,-237 4417.9912,-233.5001 4417.9913,-240.5001"/>
</g>
<!-- InternalStorage -->
<g id="node48" class="node">
<title>InternalStorage</title>
<ellipse fill="#fdb462" stroke="#000000" cx="4386" cy="-172" rx="70.622" ry="18"/>
<text text-anchor="middle" x="4386" y="-167.8" font-family="Times,serif" font-size="14.00" fill="#000000">InternalStorage</text>
</g>
<!-- InternalStorage&#45;&gt;AppModule -->
<g id="edge47" class="edge">
<title>InternalStorage&#45;&gt;AppModule</title>
<path fill="none" stroke="#000000" d="M4442.3664,-183.0264C4442.3664,-183.0264 4442.3664,-208.7791 4442.3664,-208.7791"/>
<polygon fill="#000000" stroke="#000000" points="4438.8665,-208.779 4442.3664,-218.7791 4445.8665,-208.7791 4438.8665,-208.779"/>
</g>
<!-- ProjetoMySqlApi -->
<g id="node49" class="node">
<title>ProjetoMySqlApi</title>
<ellipse fill="#fdb462" stroke="#000000" cx="4218" cy="-172" rx="79.9146" ry="18"/>
<text text-anchor="middle" x="4218" y="-167.8" font-family="Times,serif" font-size="14.00" fill="#000000">ProjetoMySqlApi</text>
</g>
<!-- ProjetoMySqlApi&#45;&gt;AppModule -->
<g id="edge48" class="edge">
<title>ProjetoMySqlApi&#45;&gt;AppModule</title>
<path fill="none" stroke="#000000" d="M4218,-190.2458C4218,-204.1772 4218,-221 4218,-221 4218,-221 4418.1044,-221 4418.1044,-221"/>
<polygon fill="#000000" stroke="#000000" points="4418.1045,-224.5001 4428.1044,-221 4418.1044,-217.5001 4418.1045,-224.5001"/>
</g>
<!-- ProjetoCanvasMySqlApi -->
<g id="node50" class="node">
<title>ProjetoCanvasMySqlApi</title>
<ellipse fill="#fdb462" stroke="#000000" cx="4012" cy="-172" rx="108.2666" ry="18"/>
<text text-anchor="middle" x="4012" y="-167.8" font-family="Times,serif" font-size="14.00" fill="#000000">ProjetoCanvasMySqlApi</text>
</g>
<!-- ProjetoCanvasMySqlApi&#45;&gt;AppModule -->
<g id="edge49" class="edge">
<title>ProjetoCanvasMySqlApi&#45;&gt;AppModule</title>
<path fill="none" stroke="#000000" d="M4012,-190.0511C4012,-204.373 4012,-222 4012,-222 4012,-222 4418.1414,-222 4418.1414,-222"/>
<polygon fill="#000000" stroke="#000000" points="4418.1414,-225.5001 4428.1414,-222 4418.1414,-218.5001 4418.1414,-225.5001"/>
</g>
<!-- MvpCanvasMySqlApi -->
<g id="node51" class="node">
<title>MvpCanvasMySqlApi</title>
<ellipse fill="#fdb462" stroke="#000000" cx="3787" cy="-172" rx="98.4603" ry="18"/>
<text text-anchor="middle" x="3787" y="-167.8" font-family="Times,serif" font-size="14.00" fill="#000000">MvpCanvasMySqlApi</text>
</g>
<!-- MvpCanvasMySqlApi&#45;&gt;AppModule -->
<g id="edge50" class="edge">
<title>MvpCanvasMySqlApi&#45;&gt;AppModule</title>
<path fill="none" stroke="#000000" d="M3787,-190.1871C3787,-205.1824 3787,-224 3787,-224 3787,-224 4418.3034,-224 4418.3034,-224"/>
<polygon fill="#000000" stroke="#000000" points="4418.3035,-227.5001 4428.3034,-224 4418.3034,-220.5001 4418.3035,-227.5001"/>
</g>
<!-- GanhoDorCanvasMySqlApi -->
<g id="node52" class="node">
<title>GanhoDorCanvasMySqlApi</title>
<ellipse fill="#fdb462" stroke="#000000" cx="3550" cy="-172" rx="120.9945" ry="18"/>
<text text-anchor="middle" x="3550" y="-167.8" font-family="Times,serif" font-size="14.00" fill="#000000">GanhoDorCanvasMySqlApi</text>
</g>
<!-- GanhoDorCanvasMySqlApi&#45;&gt;AppModule -->
<g id="edge51" class="edge">
<title>GanhoDorCanvasMySqlApi&#45;&gt;AppModule</title>
<path fill="none" stroke="#000000" d="M3550,-190.2396C3550,-205.5706 3550,-225 3550,-225 3550,-225 4418.0789,-225 4418.0789,-225"/>
<polygon fill="#000000" stroke="#000000" points="4418.0789,-228.5001 4428.0789,-225 4418.0788,-221.5001 4418.0789,-228.5001"/>
</g>
<!-- ItemValidacaoPaginaApi -->
<g id="node53" class="node">
<title>ItemValidacaoPaginaApi</title>
<ellipse fill="#fdb462" stroke="#000000" cx="3302" cy="-172" rx="108.7845" ry="18"/>
<text text-anchor="middle" x="3302" y="-167.8" font-family="Times,serif" font-size="14.00" fill="#000000">ItemValidacaoPaginaApi</text>
</g>
<!-- ItemValidacaoPaginaApi&#45;&gt;AppModule -->
<g id="edge52" class="edge">
<title>ItemValidacaoPaginaApi&#45;&gt;AppModule</title>
<path fill="none" stroke="#000000" d="M3302,-190.0091C3302,-206.0494 3302,-227 3302,-227 3302,-227 4418.0859,-227 4418.0859,-227"/>
<polygon fill="#000000" stroke="#000000" points="4418.0859,-230.5001 4428.0859,-227 4418.0859,-223.5001 4418.0859,-230.5001"/>
</g>
<!-- ErrorHandler -->
<g id="node55" class="node">
<title>ErrorHandler</title>
<ellipse fill="#fdb462" stroke="#000000" cx="751" cy="-172" rx="62.518" ry="18"/>
<text text-anchor="middle" x="751" y="-167.8" font-family="Times,serif" font-size="14.00" fill="#000000">ErrorHandler</text>
</g>
<!-- ErrorHandler&#45;&gt;SDKBrowserModule -->
<g id="edge55" class="edge">
<title>ErrorHandler&#45;&gt;SDKBrowserModule</title>
<path fill="none" stroke="#000000" d="M751,-190.1061C751,-190.1061 751,-208.991 751,-208.991"/>
<polygon fill="#000000" stroke="#000000" points="747.5001,-208.9909 751,-218.991 754.5001,-208.991 747.5001,-208.9909"/>
</g>
</g>
</svg>
